<svg version="1.1" xmlns="http://www.w3.org/2000/svg" viewBox="0 0 705 213.5">
  <!-- svg-source:excalidraw -->
  <defs>
    <style>
      @font-face {
        font-family: "Virgil";
        src: url("https://excalidraw.com/FG_Virgil.woff2");
      }
      @font-face {
        font-family: "Cascadia";
        src: url("https://excalidraw.com/Cascadia.woff2");
      }
    </style>
  </defs>
  <rect x="0" y="0" width="705" height="213.5" fill="#ffffff"></rect><g transform="translate(80 10) rotate(0 254.5 23)"><text x="509" y="32" font-family="Virgil, Segoe UI Emoji" font-size="36px" fill="#000000" text-anchor="end" style="white-space: pre;" direction="ltr">e-learning.bhaktianindya.sch.id</text></g><g><g transform="translate(254 61.5) rotate(0 112.90760168673006 -1.179944217389476)"><path d="M0.666923964768648 -0.513296652585268 C38.29851041312019 -0.8371816086272399, 188.87466282521683 -1.5174306241174538, 226.25728305652737 -1.68957836702466 M-0.4420796830672771 -1.8283813405316325 C37.01306836185666 -2.030438150294746, 187.48524193950306 -0.7330049135566999, 225.44431119757704 -0.5141817584913224" stroke="#e67700" stroke-width="2" fill="none"></path></g></g><g><g transform="translate(565.9999999999999 61.49999999999994) rotate(0 19.733172303875904 -1.7315608255564996)"><path d="M0.08913993760943417 -0.3260716550052166 C6.370848345011472 -1.0128712845345338, 32.066724919527765 -2.688076141724984, 38.39514124318957 -3.137049996107817 M-1.3232003244850785 -1.542863219222054 C5.2958837079908685 -2.210864906053369, 33.82563663332723 -2.0807393279081827, 40.78954493223689 -2.196575992843136" stroke="#c92a2a" stroke-width="2" fill="none"></path></g></g><g><g transform="translate(498 60.5) rotate(0 25.517357609490887 -0.9923736564815044)"><path d="M-0.9001639612019061 0.185428822785616 C7.538745831698179 -0.06662476385633137, 41.04671881124378 -2.1695957851906615, 49.834704684466125 -2.1701761357486244 M0.8281112298276274 -0.7628249905910343 C9.686927375188096 -0.8553389620191106, 43.49012731819414 -1.1175567841933418, 51.934879180183636 -1.2470933557953685" stroke="#1864ab" stroke-width="2" fill="none"></path></g></g><g><g transform="translate(592 71.5) rotate(0 31.588196741789602 26.50941811324097)"><path d="M-1.0844301469624043 -0.12762402221560487 C9.476349559674661 8.636261722197135, 53.498721749832235 44.03091948504249, 64.26082363054157 52.817469871789214 M0.5471052965428682 -1.2402305792178958 C10.894273060352232 7.691562929212427, 53.13193179954154 45.103229002912215, 63.44971057294868 54.25906680569984" stroke="#c92a2a" stroke-width="2" fill="none"></path></g><g transform="translate(592 71.5) rotate(0 31.588196741789602 26.50941811324097)"><path d="M35.332594493857414 43.67815043160225 C45.71776917947455 46.76990279852674, 55.79664002309537 53.58881346463663, 64.54225010319612 56.23473138035275 M34.788462020910174 43.8595487953862 C42.9423404106587 45.278505884404495, 50.26686995909944 49.12498438307797, 64.4010242269095 55.12045714863576" stroke="#c92a2a" stroke-width="2" fill="none"></path></g><g transform="translate(592 71.5) rotate(0 31.588196741789602 26.50941811324097)"><path d="M48.941691736490114 28.318707908307122 C54.25779723957642 37.04233320630196, 59.2376280965879 49.616101097839305, 64.54225010319612 56.23473138035275 M48.397559263542874 28.500106272091077 C52.96921865433397 34.04231557373609, 56.684150815297265 41.96264280879136, 64.4010242269095 55.12045714863576" stroke="#c92a2a" stroke-width="2" fill="none"></path></g></g><g><g transform="translate(517 72.5) rotate(0 -0.9793828452983462 32.15451803496575)"><path d="M0.7176401026546955 -0.3946047551929951 C0.18237143829464908 10.785031254341204, -1.6426208131015296 55.11739744270841, -2.1661379210650917 65.95641226693988 M-0.3647375727910549 -1.6473761970084162 C-1.0765435747522862 9.308436465732132, -2.2561156089324506 53.100107888352746, -2.6764057932514698 64.3359539583046" stroke="#1864ab" stroke-width="2" fill="none"></path></g><g transform="translate(517 72.5) rotate(0 -0.9793828452983462 32.15451803496575)"><path d="M-12.684866196857357 37.22023681626487 C-7.079653090891554 47.770566772280965, -5.654630470787567 57.7470377367045, -1.5736279955226928 64.52302812409587 M-12.860886668236517 36.536062872789984 C-10.432135959425517 41.40760200678312, -9.003884213527776 48.84693152386431, -2.57106454689987 65.2632565963734" stroke="#1864ab" stroke-width="2" fill="none"></path></g><g transform="translate(517 72.5) rotate(0 -0.9793828452983462 32.15451803496575)"><path d="M7.825776132520851 37.8786847049839 C5.497004371506669 48.296774940701326, -1.0181110916868423 58.01834568926978, -1.5736279955226928 64.52302812409587 M7.64975566114169 37.19451076150901 C5.71804469872993 41.82294759654679, 2.7805478612282313 49.122124606882736, -2.57106454689987 65.2632565963734" stroke="#1864ab" stroke-width="2" fill="none"></path></g></g><g><g transform="translate(346 69.5) rotate(0 -9.070665497616858 32.42598060271237)"><path d="M-0.19870356246829024 1.18033609315753 C-2.8645429564019045 11.980284857004882, -14.189893535027903 53.71583733484149, -16.996447192877532 64.0975526086986 M-1.7621616621036083 0.7544085967261345 C-4.498088026664529 11.306198209794239, -15.265706509870165 52.44772872385569, -17.942627432765438 62.55119297948666" stroke="#e67700" stroke-width="2" fill="none"></path></g><g transform="translate(346 69.5) rotate(0 -9.070665497616858 32.42598060271237)"><path d="M-18.727282792539214 32.68359520728471 C-18.44413259649641 39.08793835857149, -18.893089780786855 44.4061627276803, -18.284463449390604 61.7848344661016 M-20.607441006437753 33.56645211088242 C-19.785613050349077 41.21753175645893, -19.767668105904175 47.39582639433888, -17.493978035645558 63.30624135320075" stroke="#e67700" stroke-width="2" fill="none"></path></g><g transform="translate(346 69.5) rotate(0 -9.070665497616858 32.42598060271237)"><path d="M1.1188632821546456 37.90379523867746 C-2.865107285025566 43.14484628469575, -7.611729491841775 47.33264104792197, -18.284463449390604 61.7848344661016 M-0.761294931743894 38.78665214227517 C-5.0068321067664705 45.20358308928367, -10.05779171815167 50.04858633537993, -17.493978035645558 63.30624135320075" stroke="#e67700" stroke-width="2" fill="none"></path></g></g><g transform="translate(274 152.5) rotate(0 44 23)"><text x="0" y="32" font-family="Virgil, Segoe UI Emoji" font-size="36px" fill="#e67700" text-anchor="start" style="white-space: pre;" direction="ltr">nama</text></g><g transform="translate(646 147.5) rotate(0 24.5 23)"><text x="0" y="32" font-family="Virgil, Segoe UI Emoji" font-size="36px" fill="#c92a2a" text-anchor="start" style="white-space: pre;" direction="ltr">tld</text></g><g transform="translate(492 157.5) rotate(0 25 23)"><text x="0" y="32" font-family="Virgil, Segoe UI Emoji" font-size="36px" fill="#1864ab" text-anchor="start" style="white-space: pre;" direction="ltr">sld</text></g><g><g transform="translate(82 61.5) rotate(0 74.10407941258978 1.823523070225491)"><path d="M-0.03101244047284135 0.5984859354794025 C24.955840213348463 0.9962718772391479, 124.82273017490903 2.1749397007127604, 149.7145915262401 2.84756313636899 M-1.5064327010605485 -0.13291289373300974 C23.402996307204788 0.32807841565149526, 124.10354464778366 3.3203598318093768, 149.14170661388897 3.779959034183994" stroke="#0b7285" stroke-width="2" fill="none"></path></g></g><g><g transform="translate(145 82.5) rotate(0 -8.279052553931251 28.61416918457485)"><path d="M-0.6540951736271381 0.5718738444149494 C-3.271677741159995 9.777089799195528, -14.123676125953596 46.69639076068997, -16.877656245976688 56.25535045936704 M1.2033661308791488 -0.17349633260630082 C-1.458968573420619 9.691325746634977, -14.55472496103185 48.02807269827463, -17.761471238741652 57.401834701756016" stroke="#0b7285" stroke-width="2" fill="none"></path></g><g transform="translate(145 82.5) rotate(0 -8.279052553931251 28.61416918457485)"><path d="M-17.429035696827185 27.871673847023807 C-19.24391961316615 33.39031871470431, -16.33453952664086 40.342794240764185, -17.682892427602784 58.479627186069266 M-18.821176027573955 27.86576836969372 C-18.664577966120927 33.12376002492017, -18.613676360206032 40.799611535239784, -18.006963121527807 57.26316073128022" stroke="#0b7285" stroke-width="2" fill="none"></path></g><g transform="translate(145 82.5) rotate(0 -8.279052553931251 28.61416918457485)"><path d="M1.8288675252170243 34.42915382129039 C-3.938234174943422 38.51611895376254, -4.925111718997863 44.141885590878395, -17.682892427602784 58.479627186069266 M0.43672719447025443 34.4232483439603 C-3.351413305161151 38.42924606391392, -7.26861256140085 44.75392545339416, -18.006963121527807 57.26316073128022" stroke="#0b7285" stroke-width="2" fill="none"></path></g></g><g transform="translate(10 149.5) rotate(0 93 23)"><text x="93" y="32" font-family="Virgil, Segoe UI Emoji" font-size="36px" fill="#0b7285" text-anchor="middle" style="white-space: pre;" direction="ltr">sub domain</text></g></svg>